<svg xmlns="http://www.w3.org/2000/svg" viewBox="0 0 1200 750" width="100%" height="100%">
  <defs>
    <linearGradient id="bg" x1="0%" y1="0%" x2="0%" y2="100%">
      <stop offset="0%" stop-color="#FDFDFD"/>
      <stop offset="100%" stop-color="#ECECED"/>
    </linearGradient>
    <radialGradient id="shadow" cx="50%" cy="50%" r="50%">
      <stop offset="0%" stop-color="rgba(0,0,0,0.14)"/>
      <stop offset="100%" stop-color="rgba(0,0,0,0)"/>
    </radialGradient>
    <linearGradient id="cabGrad" x1="0%" y1="0%" x2="0%" y2="100%">
      <stop offset="0%" stop-color="#D9DDE2"/>
      <stop offset="100%" stop-color="#AEB4BC"/>
    </linearGradient>
    <linearGradient id="glassGrad" x1="0%" y1="0%" x2="0%" y2="100%">
      <stop offset="0%" stop-color="#C4D6E8"/>
      <stop offset="100%" stop-color="#8FB0CC"/>
    </linearGradient>
    <linearGradient id="boxGrad" x1="0%" y1="0%" x2="0%" y2="100%">
      <stop offset="0%" stop-color="#FBFCFD"/>
      <stop offset="100%" stop-color="#E4E7EB"/>
    </linearGradient>
    <linearGradient id="tankGrad" x1="0%" y1="0%" x2="0%" y2="100%">
      <stop offset="0%" stop-color="#EDEFF2"/>
      <stop offset="100%" stop-color="#C3C8CF"/>
    </linearGradient>
    <linearGradient id="bedGrad" x1="0%" y1="0%" x2="0%" y2="100%">
      <stop offset="0%" stop-color="#F2A93B"/>
      <stop offset="100%" stop-color="#D97E1F"/>
    </linearGradient>
  </defs>
  <rect width="1200" height="750" fill="url(#bg)"/>
  <ellipse cx="620" cy="575" rx="430" ry="26" fill="url(#shadow)"/>
  <line x1="230" y1="560" x2="1000" y2="560" stroke="#8E8E93" stroke-width="5" stroke-linecap="round"/><rect x="300" y="492" width="650" height="18" rx="7" fill="#6B7078"/><g>
    <path d="M 342 240 L 386 194 L 508 194 L 508 240 Z" fill="url(#cabGrad)" stroke="#9AA0A8" stroke-width="2"/>
    <path d="M 268 492 L 262 302 Q 262 240 324 240 L 492 240 Q 508 240 508 258 L 508 492 Z"
      fill="url(#cabGrad)" stroke="#9AA0A8" stroke-width="2.5"/>
    <path d="M 292 268 L 480 268 Q 488 268 488 280 L 488 348 L 292 348 Z"
      fill="url(#glassGrad)" stroke="#7E93A8" stroke-width="2.5"/>
    <line x1="398" y1="348" x2="398" y2="488" stroke="rgba(255,255,255,0.55)" stroke-width="3"/>
    <rect x="413" y="362" width="26" height="7" rx="3.5" fill="#7A7F87"/>
    <rect x="250" y="294" width="10" height="26" rx="3" fill="#5A5E66"/>
    <rect x="256" y="428" width="40" height="17" rx="5" fill="#FFE9A8" stroke="#D6B84C" stroke-width="2"/>
    <rect x="246" y="462" width="72" height="30" rx="7" fill="#7A7F87"/>
    <rect x="434" y="464" width="42" height="28" rx="5" fill="#5A5E66"/>
  </g><path d="M 636 468 L 742 468 L 726 492 L 652 492 Z" fill="#4A4E55"/><rect x="530" y="452" width="52" height="40" rx="8" fill="#C9CDD3" stroke="#9AA0A8" stroke-width="2"/><g>
    
    <circle cx="336" cy="512" r="48" fill="#2E3035"/>
    <circle cx="336" cy="512" r="28.799999999999997" fill="#E3E5E8" stroke="#A7ABB2" stroke-width="3"/>
    <g stroke="#A7ABB2" stroke-width="4" stroke-linecap="round"><line x1="328.3" y1="512.0" x2="313.9" y2="512.0"/><line x1="332.2" y1="505.3" x2="325.0" y2="492.9"/><line x1="339.8" y1="505.3" x2="347.0" y2="492.9"/><line x1="343.7" y1="512.0" x2="358.1" y2="512.0"/><line x1="339.8" y1="518.7" x2="347.0" y2="531.1"/><line x1="332.2" y1="518.7" x2="325.0" y2="531.1"/></g>
    <circle cx="336" cy="512" r="8.16" fill="#8E8E93"/>
  </g><g>
    
    <circle cx="850" cy="512" r="48" fill="#2E3035"/>
    <circle cx="850" cy="512" r="28.799999999999997" fill="#E3E5E8" stroke="#A7ABB2" stroke-width="3"/>
    <g stroke="#A7ABB2" stroke-width="4" stroke-linecap="round"><line x1="842.3" y1="512.0" x2="827.9" y2="512.0"/><line x1="846.2" y1="505.3" x2="839.0" y2="492.9"/><line x1="853.8" y1="505.3" x2="861.0" y2="492.9"/><line x1="857.7" y1="512.0" x2="872.1" y2="512.0"/><line x1="853.8" y1="518.7" x2="861.0" y2="531.1"/><line x1="846.2" y1="518.7" x2="839.0" y2="531.1"/></g>
    <circle cx="850" cy="512" r="8.16" fill="#8E8E93"/>
  </g><g>
    
    <circle cx="946" cy="512" r="48" fill="#2E3035"/>
    <circle cx="946" cy="512" r="28.799999999999997" fill="#E3E5E8" stroke="#A7ABB2" stroke-width="3"/>
    <g stroke="#A7ABB2" stroke-width="4" stroke-linecap="round"><line x1="938.3" y1="512.0" x2="923.9" y2="512.0"/><line x1="942.2" y1="505.3" x2="935.0" y2="492.9"/><line x1="949.8" y1="505.3" x2="957.0" y2="492.9"/><line x1="953.7" y1="512.0" x2="968.1" y2="512.0"/><line x1="949.8" y1="518.7" x2="957.0" y2="531.1"/><line x1="942.2" y1="518.7" x2="935.0" y2="531.1"/></g>
    <circle cx="946" cy="512" r="8.16" fill="#8E8E93"/>
  </g>
  <text x="600" y="132" font-family="-apple-system, SF Pro Display, PingFang SC, sans-serif" font-size="21" font-weight="600" fill="#86868B" text-anchor="middle" letter-spacing="5">AUMAN</text>
  <text x="600" y="176" font-family="-apple-system, SF Pro Display, PingFang SC, sans-serif" font-size="34" font-weight="700" fill="#1D1D1F" text-anchor="middle">欧曼星辉快递 500</text>
  <text x="600" y="654" font-family="-apple-system, SF Pro Display, PingFang SC, sans-serif" font-size="16" font-weight="500" fill="#86868B" text-anchor="middle">6×2 高速快运车 · 快递电商干线 · 车型展示图（非门店实拍）</text>
</svg>